<svg data-name="Layer 1" xmlns="http://www.w3.org/2000/svg" viewBox="0 0 116.93 39"><path d="M107.5 0H7.45A12.84 12.84 0 005.5.21a6.59 6.59 0 00-1.85.61A6.22 6.22 0 002.07 2 5.93 5.93 0 00.92 3.55a6.45 6.45 0 00-.61 1.86 12.74 12.74 0 00-.18 2V31.69a12.62 12.62 0 00.18 1.95 6.35 6.35 0 00.61 1.86 5.93 5.93 0 001.15 1.58 6 6 0 001.58 1.14 6.31 6.31 0 001.85.62 12.84 12.84 0 002 .17h102a12.84 12.84 0 002-.17 6.57 6.57 0 001.86-.62 6.07 6.07 0 001.57-1.14A6.37 6.37 0 00116 35.5a6.64 6.64 0 00.6-1.86 12.62 12.62 0 00.18-1.95v-.9V9.32 7.36a12.74 12.74 0 00-.18-1.95 6.75 6.75 0 00-.6-1.86 6.37 6.37 0 00-2.73-2.73 6.88 6.88 0 00-1.86-.61 12.84 12.84 0 00-2-.17h-2z" fill="#a7a6a6"/><path d="M8.35 38.17h-.88A12.31 12.31 0 015.65 38 6.15 6.15 0 014 37.47a5.51 5.51 0 01-1.36-1 5.15 5.15 0 01-1-1.37 5.35 5.35 0 01-.53-1.61A11.31 11.31 0 011 31.67V8.26v-.87a11.12 11.12 0 01.16-1.83 5.5 5.5 0 01.53-1.62 5 5 0 011-1.36 5.31 5.31 0 011.31-1 5.41 5.41 0 011.62-.53A12.31 12.31 0 017.47.89h102a12.31 12.31 0 011.82.16 5.5 5.5 0 011.62.53 5.44 5.44 0 012.36 2.36 5.72 5.72 0 01.52 1.61 12.59 12.59 0 01.17 1.84v24.29a12.18 12.18 0 01-.17 1.81 5.85 5.85 0 01-.52 1.63 5.5 5.5 0 01-2.36 2.35 5.81 5.81 0 01-1.62.53 12.56 12.56 0 01-1.83.16H8.35z" fill="#010101"/><path d="M24.27 19.82a4.82 4.82 0 012.3-4.05 4.92 4.92 0 00-3.89-2.1c-1.64-.18-3.23 1-4.06 1s-2.14-1-3.52-.94a5.18 5.18 0 00-4.36 2.66c-1.89 3.27-.48 8.06 1.32 10.7.91 1.29 2 2.74 3.35 2.69s1.85-.87 3.49-.87 2.09.87 3.5.83 2.36-1.29 3.24-2.6a11.24 11.24 0 001.48-3 4.66 4.66 0 01-2.85-4.32zm-2.66-7.89a4.72 4.72 0 001.08-3.4 4.78 4.78 0 00-3.12 1.61 4.5 4.5 0 00-1.12 3.28 4 4 0 003.16-1.49zm19.75 14.56h-4.61l-1.11 3.27h-2l4.37-12.11h2l4.37 12.11h-2zM37.23 25h3.66l-1.81-5.32zm16.67.36c0 2.75-1.47 4.51-3.68 4.51a3 3 0 01-2.78-1.54v4.37h-1.85V20.93h1.75v1.47a3.13 3.13 0 012.81-1.56c2.27 0 3.75 1.77 3.75 4.5zm-1.86 0c0-1.78-.93-3-2.33-3s-2.32 1.2-2.32 3 .93 3 2.32 3S52 27.15 52 25.34zm11.58 0c0 2.75-1.47 4.51-3.69 4.51a3 3 0 01-2.78-1.54v4.37H55.3V20.93h1.75v1.47a3.13 3.13 0 012.81-1.56c2.28 0 3.76 1.77 3.76 4.5zm-1.87 0c0-1.78-.92-3-2.33-3s-2.31 1.2-2.31 3 .93 3 2.31 3 2.33-1.16 2.33-3zm8.29 1c.13 1.21 1.3 2 2.89 2s2.63-.78 2.63-1.87-.66-1.5-2.23-1.89l-1.57-.37c-2.23-.53-3.26-1.57-3.26-3.23 0-2.09 1.82-3.52 4.41-3.52s4.31 1.43 4.37 3.52h-1.83c-.11-1.24-1.11-2-2.57-2s-2.46.74-2.46 1.82c0 .85.64 1.36 2.2 1.74l1.34.33c2.48.59 3.51 1.58 3.51 3.36 0 2.26-1.8 3.68-4.67 3.68-2.69 0-4.5-1.39-4.62-3.58zm11.34-7.54v2.09h1.68v1.44h-1.68v4.86c0 .76.34 1.11 1.08 1.11a5.85 5.85 0 00.59 0v1.42a4.83 4.83 0 01-1 .09c-1.79 0-2.49-.67-2.49-2.38v-5.08h-1.28v-1.44h1.28v-2.09zM84 25.34c0-2.77 1.64-4.52 4.19-4.52s4.19 1.75 4.19 4.52-1.62 4.53-4.19 4.53S84 28.13 84 25.34zm6.53 0c0-1.9-.87-3-2.34-3s-2.34 1.14-2.34 3 .87 3 2.34 3 2.34-1.11 2.34-3zm3.34-4.41h1.73v1.5a2.11 2.11 0 012.12-1.59 2.7 2.7 0 01.63.07v1.69a2.54 2.54 0 00-.82-.11 1.82 1.82 0 00-1.9 1.75 2.53 2.53 0 000 .28v5.24H93.9zm12.87 6.24c-.24 1.6-1.8 2.7-3.8 2.7-2.57 0-4.16-1.72-4.16-4.48s1.6-4.57 4.08-4.57 4 1.68 4 4.36v.62h-6.23v.11a2.29 2.29 0 002.08 2.49h.29a2 2 0 002-1.24zm-6.13-2.64h4.42a2.13 2.13 0 00-2-2.24h-.17a2.24 2.24 0 00-2.25 2.22zM37 8.54a2.57 2.57 0 012.75 2.38 2.9 2.9 0 010 .51c0 1.86-1 2.92-2.74 2.92H34.9V8.54zm-1.2 5h1.1a1.82 1.82 0 001.93-1.71 1.6 1.6 0 000-.38 1.84 1.84 0 00-1.57-2.07 2 2 0 00-.35 0H35.8zm5-1.37a2.08 2.08 0 114.14-.4 2.67 2.67 0 010 .4 2.08 2.08 0 01-4.14.4 2.67 2.67 0 01-.04-.41zm3.25 0c0-.95-.43-1.51-1.18-1.51s-1.18.56-1.18 1.51.43 1.51 1.18 1.51S44 13.11 44 12.16zm6.39 2.19h-.9l-.9-3.23h-.07l-.9 3.23h-.89L45.52 10h.88l.79 3.35h.07l.9-3.35H49l.9 3.35h.1l.74-3.35h.87zM52.63 10h.83v.7h.07a1.31 1.31 0 011.31-.78 1.43 1.43 0 011.53 1.32v3.15h-.87v-2.66c0-.71-.31-1.06-1-1.06a1 1 0 00-1 1v2.72h-.86zm5.11-1.71h.86v6.1h-.86zm2.07 3.91a2.08 2.08 0 114.14-.4 2.67 2.67 0 010 .4 2.08 2.08 0 01-4.14.4 1.34 1.34 0 010-.44zm3.25 0c0-.95-.43-1.51-1.18-1.51s-1.18.56-1.18 1.51.43 1.51 1.18 1.51 1.18-.6 1.18-1.55zm1.8.95c0-.79.59-1.24 1.63-1.31l1.19-.07v-.38c0-.46-.3-.72-.9-.72s-.81.18-.91.49H65c.09-.76.8-1.24 1.79-1.24s1.73.55 1.73 1.47v3h-.84v-.61h-.07a1.48 1.48 0 01-1.32.69 1.33 1.33 0 01-1.45-1.19.53.53 0 01.02-.17zm2.82-.37v-.37l-1.07.07c-.6 0-.88.25-.88.63s.34.63.82.63a1 1 0 001.13-.93zm2-.58c0-1.39.72-2.27 1.83-2.27a1.46 1.46 0 011.34.77h.07V8.25h.86v6.1H73v-.69h-.06a1.55 1.55 0 01-1.38.77c-1.17 0-1.88-.88-1.88-2.27zm.9 0c0 .93.44 1.49 1.17 1.49s1.18-.57 1.18-1.49-.45-1.49-1.18-1.49-1.17.56-1.17 1.49zm6.79 0a2.08 2.08 0 114.14-.4 2.67 2.67 0 010 .4 2.08 2.08 0 01-4.14.4 2.67 2.67 0 010-.44zm3.25 0c0-.95-.43-1.51-1.18-1.51s-1.18.56-1.18 1.51.43 1.51 1.18 1.51 1.18-.6 1.18-1.55zm2-2.2h.84v.7h.06a1.31 1.31 0 011.31-.78 1.42 1.42 0 011.53 1.32 1.08 1.08 0 010 .31v2.84h-.87v-2.66c0-.71-.3-1.06-.94-1.06a1 1 0 00-1.06 1 .86.86 0 000 .16v2.56h-.87zm8.68-1.13V10h1v.73h-1V13c0 .46.19.66.62.66a1.83 1.83 0 00.33 0v.72a2.59 2.59 0 01-.47.05c-1 0-1.35-.34-1.35-1.19v-2.53h-.7V10h.7V8.87zm2.13-.62h.86v2.42h.07a1.36 1.36 0 011.34-.79 1.44 1.44 0 011.52 1.37 1.22 1.22 0 010 .27v2.83h-.87v-2.62c0-.7-.32-1.05-.94-1.05a1 1 0 00-1.1.94.48.48 0 000 .17v2.56h-.87zm8.83 4.92a1.78 1.78 0 01-1.9 1.27 2 2 0 01-2-1.94v-.33a2 2 0 011.74-2.27 1.37 1.37 0 01.29 0c1.22 0 2 .83 2 2.21v.31h-3.1a1.17 1.17 0 001.06 1.26h.11a1.06 1.06 0 001.05-.53zm-3.05-1.42h2.22a1.05 1.05 0 00-1-1.13h-.1a1.13 1.13 0 00-1.14 1.11z" fill="#fff"/></svg>