<svg xmlns="http://www.w3.org/2000/svg" viewBox="0 0 533.4 86.87"><defs><style>.cls-1{fill:#e63312;}.cls-2{fill:#193950;}</style></defs><title>Asset 1</title><g id="Layer_2" data-name="Layer 2"><g id="Layer_1-2" data-name="Layer 1"><path class="cls-1" d="M53.38,17.07H95.06s-13.81,11.3-41.68,11.3-41.68-11.3-41.68-11.3Z"/><path class="cls-1" d="M53.38,86.87H95.06s-13.81-11.3-41.68-11.3-41.68,11.3-41.68,11.3Z"/><path class="cls-1" d="M111,24c-2-4.53-4-4.93-6.34-4.51-3.17.59-10.67,4.57-21.89,8.42a109.25,109.25,0,0,1,2.53,24A109.31,109.31,0,0,1,82.8,76c11.22,3.85,18.72,7.83,21.89,8.41,2.34.43,4.3,0,6.34-4.51,1.43-3.16,4.82-12.46,4.82-27.94S112.46,27.18,111,24Z"/><path class="cls-1" d="M21.3,52A112.79,112.79,0,0,1,23.66,28.7c-5.72-2.45-13-5.56-13.71-5.64-2.1-.23-3.84,0-5.65,4C3,29.88,0,38.18,0,52s3,22.08,4.3,24.9c1.82,4,3.55,4.24,5.65,4,.72-.07,8-3.19,13.71-5.64A112.66,112.66,0,0,1,21.3,52Z"/><path class="cls-2" d="M290.26,18.08c-1.42.26-2.83.57-4.22.94a32.29,32.29,0,0,0-11.64,5.76,28.32,28.32,0,0,0-8.25,11.12q-3,6.94-3,17.15V86.81h18.32V51q0-7.85,3.67-11.52c2.23-2.23,5.57-3.43,10-3.63Z"/><path class="cls-2" d="M246.3,82.83a31.2,31.2,0,0,1-11.22,3.4,102.34,102.34,0,0,1-10.48.63,26.47,26.47,0,0,1-15.89-4.92Q201.89,77,201.9,65.67q0-10.59,6.18-15.14t15.76-6a14.94,14.94,0,0,0,3-.38c1.17-.25,2.53-.46,4-.63Q242,42,242,36.92q0-3.79-3.91-4.92a26.11,26.11,0,0,0-7.19-1.13,18.46,18.46,0,0,0-6.31,1,6.88,6.88,0,0,0-4,3.79h-16.9a19.43,19.43,0,0,1,7.06-12.87Q217.54,17,230.15,17q14.13,0,21.2,4.8a16.19,16.19,0,0,1,7.32,14.12v23q0,10.09-3.66,15.76A22.37,22.37,0,0,1,246.3,82.83Zm-4-31a47.36,47.36,0,0,1-9.83,3.28l-5.81,1.25a15,15,0,0,0-6.56,3.28,10.31,10.31,0,0,0-1.77,5.55,8.16,8.16,0,0,0,2.27,6q2.26,2,6.56,2,7.06,0,11.1-4t4-11.1Z"/><path class="cls-2" d="M378.84,17.19q-6.81,0-8.37,6.28l-9.69,41.88-9.43-48.16H341.23q-6.81,0-8.37,6.28l-8.62,41.88-11-48.16H295.44l19.12,69.62h18.31l10-48.31,10,48.31h18.32l19.11-69.62Z"/><path class="cls-2" d="M433.6,82.83a31.32,31.32,0,0,1-11.25,3.4,101.89,101.89,0,0,1-10.46.63A26.41,26.41,0,0,1,396,81.95q-6.83-4.93-6.81-16.28,0-10.59,6.18-15.14t15.77-6a14.88,14.88,0,0,0,3-.38q1.77-.38,4-.63,11.1-1.51,11.11-6.56c0-2.52-1.32-4.16-3.92-4.92a26.05,26.05,0,0,0-7.19-1.13,18.58,18.58,0,0,0-6.3,1,6.88,6.88,0,0,0-4,3.79H391A19.48,19.48,0,0,1,398,22.79Q404.83,17,417.44,17q14.13,0,21.21,4.8A16.18,16.18,0,0,1,446,35.9v23Q446,69,442.3,74.63A22.42,22.42,0,0,1,433.6,82.83Zm-4-31a47.63,47.63,0,0,1-9.84,3.28l-5.8,1.25a15.07,15.07,0,0,0-6.57,3.28,10.32,10.32,0,0,0-1.75,5.55,8.19,8.19,0,0,0,2.26,6c1.51,1.35,3.71,2,6.56,2q7.06,0,11.11-4t4-11.1Z"/><path class="cls-2" d="M450.56,0h7.91a8.51,8.51,0,0,1,6.06,2.4A7.87,7.87,0,0,1,467,8.32V86.78H450.56Z"/><path class="cls-2" d="M519.77,64.92h12.62q-2.78,10.6-10.6,16.15-7.82,5.79-19.68,5.8-14.38,0-22.45-9.34-8.08-9.08-8.07-26,0-16.15,7.81-25.23Q487.49,17,501.87,17q15.13,0,23.45,9.08,8.07,9.33,8.07,26v2.77a4.37,4.37,0,0,1-.25,1.77H489.51q.24,7.82,3.79,11.6c2.18,2.69,5.47,4,9.84,4a14.18,14.18,0,0,0,7.31-1.78,3.45,3.45,0,0,0,1.4-.88l1.38-1.38a5.49,5.49,0,0,1,1.9-2A7.51,7.51,0,0,1,519.77,64.92ZM489.51,45.24h25.73q-.51-6.81-3.54-10.09-3.26-3.53-9.33-3.53a12.27,12.27,0,0,0-9.08,3.53Q489.75,38.69,489.51,45.24Z"/><path class="cls-2" d="M180.11,66.17a10.92,10.92,0,0,0-2,2l-1.39,1.38a3.4,3.4,0,0,1-1.39.88A14.21,14.21,0,0,1,168,72.24q-6.56,0-9.84-4-4.54-4.8-4.54-16.4t4.54-16.65a12.28,12.28,0,0,1,9.08-3.53q6,0,9.34,3.53c.15.16.3.33.44.51h18.66a33.76,33.76,0,0,0-5.48-9.59Q181.87,17,166.73,17q-14.37,0-22.45,9.34-7.83,9.07-7.82,25.23,0,16.9,8.06,26,8.07,9.33,22.46,9.34,11.85,0,19.68-5.8,7.81-5.56,10.58-16.15H184.64A7,7,0,0,0,180.11,66.17Z"/></g></g></svg>