<svg data-name="Layer 1" xmlns="http://www.w3.org/2000/svg" viewBox="0 0 115 34"><defs><linearGradient id="a" x1="18.91" y1="355.53" x2="4.74" y2="341.36" gradientTransform="matrix(1 0 0 -1 0 363)" gradientUnits="userSpaceOnUse"><stop offset="0" stop-color="#4998d3"/><stop offset=".01" stop-color="#4a99d3"/><stop offset=".26" stop-color="#42baeb"/><stop offset=".51" stop-color="#41c7f2"/><stop offset=".76" stop-color="#56c9e9"/><stop offset="1" stop-color="#5bcae8"/></linearGradient><linearGradient id="b" x1="29.07" y1="346" x2="8.64" y2="346" gradientTransform="matrix(1 0 0 -1 0 363)" gradientUnits="userSpaceOnUse"><stop offset="0" stop-color="#fee000"/><stop offset=".41" stop-color="#febd11"/><stop offset=".78" stop-color="#faa51a"/><stop offset="1" stop-color="#f99c1c"/></linearGradient><linearGradient id="c" x1="21.46" y1="344.06" x2="2.25" y2="324.84" gradientTransform="matrix(1 0 0 -1 0 363)" gradientUnits="userSpaceOnUse"><stop offset="0" stop-color="#ef4049"/><stop offset="1" stop-color="#c31e63"/></linearGradient><linearGradient id="d" x1="6.66" y1="362.74" x2="15.24" y2="354.16" gradientTransform="matrix(1 0 0 -1 0 363)" gradientUnits="userSpaceOnUse"><stop offset="0" stop-color="#32a072"/><stop offset=".07" stop-color="#2da771"/><stop offset=".48" stop-color="#4bba71"/><stop offset=".8" stop-color="#5ebd6b"/><stop offset="1" stop-color="#66be69"/></linearGradient></defs><rect x=".5" y=".11" width="114" height="33.78" rx="4.22"/><path d="M110.28.79a3.55 3.55 0 013.54 3.54v25.34a3.55 3.55 0 01-3.54 3.54H4.72a3.55 3.55 0 01-3.54-3.54V4.33A3.55 3.55 0 014.72.79h105.56m0-.68H4.72A4.23 4.23 0 00.5 4.33v25.34a4.23 4.23 0 004.22 4.22h105.56a4.23 4.23 0 004.22-4.22V4.33a4.23 4.23 0 00-4.22-4.22z" fill="#a7a6a6"/><path d="M40.54 8.76a2.28 2.28 0 01-.63 1.69 2.43 2.43 0 01-1.86.75 2.61 2.61 0 01-2.63-2.64 2.57 2.57 0 01.77-1.89 2.53 2.53 0 011.86-.76 2.65 2.65 0 011 .21 2 2 0 01.79.57l-.44.44a1.72 1.72 0 00-1.39-.6 1.94 1.94 0 00-1.38.56 2 2 0 00-.59 1.47 2 2 0 002 2 1.92 1.92 0 001.43-.56 1.59 1.59 0 00.42-1h-1.84v-.62h2.46a2.53 2.53 0 01.03.38zm3.89-2.12h-2.3v1.61h2.08v.61h-2.08v1.61h2.3v.62h-3V6h3zm2.75 4.45h-.65V6.64h-1.42V6h3.48v.62h-1.41zm3.93 0V6h.65v5.07zm3.54 0H54V6.64h-1.41V6h3.48v.62h-1.42zm8-.66a2.63 2.63 0 01-3.72 0 2.6 2.6 0 01-.74-1.87 2.6 2.6 0 01.74-1.88 2.47 2.47 0 011.86-.77 2.5 2.5 0 011.86.77 2.59 2.59 0 01.75 1.88 2.56 2.56 0 01-.74 1.87zM59.42 10a2 2 0 002.76 0 2 2 0 00.56-1.45 2 2 0 00-.56-1.46 2 2 0 00-2.76 0 2 2 0 00-.56 1.46 2 2 0 00.56 1.45zm4.9 1.08V6h.79l2.46 4h0V6h.66v5.07h-.68L65 7h0v4.16zM58 18.48a3.59 3.59 0 103.6 3.59 3.54 3.54 0 00-3.6-3.59zm0 5.77a2.19 2.19 0 112-2.18 2.08 2.08 0 01-2 2.18zm-7.87-5.77a3.59 3.59 0 103.61 3.59 3.54 3.54 0 00-3.57-3.59zm0 5.77a2.19 2.19 0 112-2.18 2.07 2.07 0 01-1.96 2.18zm-9.35-4.67v1.52h3.64a3.14 3.14 0 01-.79 1.9 3.73 3.73 0 01-2.81 1.12 4.06 4.06 0 010-8.11 3.87 3.87 0 012.74 1.09l1.08-1.1a5.31 5.31 0 00-3.82-1.53 5.58 5.58 0 100 11.15A4.93 4.93 0 0046 20.53a5.35 5.35 0 00-.08-1zm38.26 1.18A3.34 3.34 0 0076 18.48a3.4 3.4 0 00-3.38 3.59 3.58 3.58 0 006.55 2L78 23.25a2.06 2.06 0 01-1.77 1 1.83 1.83 0 01-1.74-1.09l4.8-2zM74.18 22a2 2 0 011.88-2.09 1.39 1.39 0 011.33.76zm-3.9 3.48h1.57V14.89h-1.57zm-2.59-6.16h0a2.52 2.52 0 00-1.9-.8 3.59 3.59 0 000 7.18 2.49 2.49 0 001.9-.81h0v.51c0 1.38-.73 2.11-1.92 2.11A2 2 0 0164 26.19l-1.37.57a3.41 3.41 0 003.18 2.13c1.85 0 3.42-1.09 3.42-3.74V18.7h-1.5zm-1.81 5a2.06 2.06 0 01-2-2.17 2.08 2.08 0 012-2.19 2 2 0 011.92 2.19 2 2 0 01-1.92 2.1zm20.59-9.36h-3.78v10.48h1.58v-4h2.2a3.28 3.28 0 100-6.55zm0 5.09h-2.2v-3.69h2.24a1.83 1.83 0 011.85 1.81A1.85 1.85 0 0186.51 20zm9.74-1.52a3 3 0 00-2.81 1.62l1.4.58a1.48 1.48 0 011.43-.77 1.51 1.51 0 011.66 1.35v.11a3.49 3.49 0 00-1.64-.4c-1.51 0-3 .82-3 2.37a2.43 2.43 0 002.62 2.32 2.22 2.22 0 002-1h.05v.82h1.52v-4.15a2.9 2.9 0 00-3.19-2.92zm-.19 5.79c-.52 0-1.24-.26-1.24-.9 0-.82.9-1.13 1.67-1.13a2.85 2.85 0 011.44.35 1.91 1.91 0 01-1.83 1.61zm8.98-5.63l-1.8 4.58h-.06l-1.87-4.58h-1.7l2.81 6.4-1.6 3.56h1.64l4.34-10zm-14.2 6.75h1.58V14.89H90.8z" fill="#fff" stroke="#fff" stroke-miterlimit="10" stroke-width=".17"/><path d="M9.31 6.48a1.71 1.71 0 00-.39 1.18v18.68a1.73 1.73 0 00.39 1.19l.06.06 10.47-10.47v-.24L9.37 6.42z" fill="url(#a)"/><path d="M23.32 20.61l-3.48-3.49v-.24l3.48-3.49h.08l4.13 2.35a1.28 1.28 0 010 2.44l-4.13 2.39z" fill="url(#b)"/><path d="M23.4 20.57L19.84 17 9.31 27.53a1.38 1.38 0 001.76 0l12.33-7" fill="url(#c)"/><path d="M23.4 13.43l-12.33-7a1.37 1.37 0 00-1.76.06L19.84 17z" fill="url(#d)"/><path d="M23.32 20.49l-12.25 7a1.41 1.41 0 01-1.7 0l-.06.07.06.06a1.43 1.43 0 001.7 0l12.33-7z" fill="#010101" opacity=".2" style="isolation:isolate"/><path d="M9.31 27.4a1.71 1.71 0 01-.39-1.18v.12a1.73 1.73 0 00.39 1.19l.06-.07zM27.53 18.1l-4.21 2.39.08.08 4.13-2.35a1.5 1.5 0 00.89-1.22 1.59 1.59 0 01-.89 1.1z" fill="#010101" opacity=".12" style="isolation:isolate"/><path d="M11.07 6.55l16.46 9.35a1.59 1.59 0 01.89 1.1 1.5 1.5 0 00-.89-1.22L11.07 6.43c-1.18-.68-2.15-.12-2.15 1.23v.13c0-1.36.97-1.91 2.15-1.24z" fill="#fff" opacity=".25" style="isolation:isolate"/></svg>