<?xml version="1.0" encoding="UTF-8"?>
<svg width="296px" height="127px" viewBox="0 0 296 127" version="1.1" xmlns="http://www.w3.org/2000/svg" xmlns:xlink="http://www.w3.org/1999/xlink">
    <!-- Generator: Sketch 57.1 (83088) - https://sketch.com -->
    <title>Group 51</title>
    <desc>Created with Sketch.</desc>
    <g id="All-final" stroke="none" stroke-width="1" fill="none" fill-rule="evenodd">
        <g id="Group-51">
            <rect id="Rectangle" fill-opacity="0.01" fill="#FFFFFF" x="0" y="0" width="296" height="127"></rect>
            <g id="No-cars-icon-2" transform="translate(1.000000, 2.000000)">
                <path d="M214,114 L221,114" id="Stroke-1" stroke="#3D3D3D" stroke-width="1.5" stroke-linecap="round" stroke-linejoin="round"></path>
                <path d="M225,114 L227,114" id="Stroke-2" stroke="#3D3D3D" stroke-width="1.5" stroke-linecap="round" stroke-linejoin="round"></path>
                <path d="M109,116 L67,116" id="Stroke-3" stroke="#3D3D3D" stroke-width="1.5" stroke-linecap="round" stroke-linejoin="round"></path>
                <path d="M259.171821,60.9293835 L223.865692,60.9293835 C219.918439,60.9293835 216.718475,57.7296308 216.718475,53.7826391 C216.718475,49.835444 219.918439,46.6354881 223.865692,46.6354881 L231.996825,46.6354881 C236.811306,46.6354881 240.714242,42.7328103 240.714242,37.9188505 C240.714242,33.1046873 236.811306,29.2020095 231.996825,29.2020095 L186.590511,29.2020095 C183.431001,29.2020095 180.86977,26.6407438 180.86977,23.4816462 C180.86977,20.3223453 183.431001,17.7612829 186.590511,17.7612829 L194.947904,17.7612829 C199.160652,17.7612829 202.575492,14.3464652 202.575492,10.1339962 C202.575492,5.92152727 199.160652,2.50691289 194.947904,2.50691289 L91.8550254,2.50691289 C87.642278,2.50691289 84.227438,5.92152727 84.227438,10.1339962 C84.227438,14.3464652 87.642278,17.7612829 91.8550254,17.7612829 L98.0896801,17.7612829 C101.24919,17.7612829 103.810422,20.3223453 103.810422,23.4814429 C103.810422,26.6407438 101.24919,29.2020095 98.0896801,29.2020095 L44.1972915,29.2020095 C39.3830135,29.2020095 35.4800777,33.1046873 35.4800777,37.9188505 C35.4800777,42.7328103 39.3830135,46.6354881 44.1972915,46.6354881 L59.6864514,46.6354881 C63.633704,46.6354881 66.8336682,49.835444 66.8336682,53.7826391 C66.8336682,57.7296308 63.633704,60.9293835 59.6864514,60.9293835 L18.3670493,60.9293835 C13.7458954,60.9293835 10.0001016,64.6753362 10.0001016,69.2957782 C10.0001016,73.9164235 13.7458954,77.6621729 18.3670493,77.6621729 L77.8039283,77.6621729 C81.0370284,77.6621729 83.6580269,80.2832015 83.6580269,83.5158847 C83.6580269,86.7487712 81.0370284,89.3697997 77.8039283,89.3697997 L63.8935067,89.3697997 C58.716562,89.3697997 54.5200777,93.5660067 54.5200777,98.742609 C54.5200777,103.919212 58.716562,108.115825 63.8935067,108.115825 L221.034493,108.115825 C226.211438,108.115825 230.408126,103.919212 230.408126,98.742609 C230.408126,93.5660067 226.211438,89.3697997 221.034493,89.3697997 L212.604729,89.3697997 C209.371629,89.3697997 206.750834,86.7487712 206.750834,83.5158847 C206.750834,80.2832015 209.371629,77.6621729 212.604729,77.6621729 L259.171821,77.6621729 C263.792771,77.6621729 267.538768,73.9164235 267.538768,69.2957782 C267.538768,64.6753362 263.792771,60.9293835 259.171821,60.9293835 Z" id="Fill-4" fill="#FBFBFB" fill-rule="nonzero"></path>
                <path d="M62.6817447,115.533901 L58.0122081,115.533901" id="Stroke-6" stroke="#000000" stroke-width="1.5" stroke-linecap="round" stroke-linejoin="round"></path>
                <path d="M178.975263,113.977587 L209.531353,113.977587" id="Stroke-8" stroke="#3D3D3D" stroke-width="1.5" stroke-linecap="round" stroke-linejoin="round"></path>
                <path d="M181.940023,118.72656 L212.496316,118.72656" id="Stroke-10" stroke="#3D3D3D" stroke-width="1.5" stroke-linecap="round" stroke-linejoin="round"></path>
                <path d="M102.307916,123.725662 L142.835103,123.725662" id="Stroke-12" stroke="#3D3D3D" stroke-width="1.5" stroke-linecap="round" stroke-linejoin="round"></path>
                <path d="M83.5843348,120.270373 L109.013082,120.270373" id="Stroke-14" stroke="#3D3D3D" stroke-width="1.5" stroke-linecap="round" stroke-linejoin="round"></path>
                <path d="M115.477189,0.0863918985 C113.629703,0.0863918985 112.132077,1.58391923 112.132077,3.43107966 C112.132077,5.27844336 113.629703,6.7759707 115.477189,6.7759707 C117.324471,6.7759707 118.822097,5.27844336 118.822097,3.43107966 C118.822097,1.58391923 117.324471,0.0863918985 115.477189,0.0863918985 Z" id="Stroke-16" stroke="#3D3D3D" stroke-width="1.5"></path>
                <path d="M255.053806,98.887178 C253.20632,98.887178 251.708897,97.3896512 251.708897,95.5422875 C251.708897,93.695127 253.20632,92.1975997 255.053806,92.1975997 C256.901291,92.1975997 258.398714,93.695127 258.398714,95.5422875 C258.398714,97.3896512 256.901291,98.887178 255.053806,98.887178 Z" id="Stroke-18" stroke="#3D3D3D" stroke-width="1.5"></path>
                <path d="M3.6713495,64.5581278 C1.8238637,64.5581278 0.3262374,63.0606005 0.3262374,61.21344 C0.3262374,59.3660763 1.8238637,57.8687523 3.6713495,57.8687523 C5.518632,57.8687523 7.0162583,59.3660763 7.0162583,61.21344 C7.0162583,63.0606005 5.518632,64.5581278 3.6713495,64.5581278 Z" id="Stroke-20" stroke="#3D3D3D" stroke-width="1.5"></path>
                <polygon id="Stroke-22" stroke="#00AFA0" stroke-width="1.5" stroke-linecap="round" stroke-linejoin="round" points="70.3545028 89.8867079 63.4585507 86.3086604 63.4585507 94.1963423"></polygon>
                <polygon id="Stroke-24" stroke="#00AFA0" stroke-width="1.5" stroke-linecap="round" stroke-linejoin="round" points="236.819377 56.6206638 232.417368 65.1041449 242.121954 65.1041449"></polygon>
                <path d="M286.933794,77.9615768 L293.874469,77.9615768" id="Stroke-26" stroke="#3D3D3D" stroke-width="1.5" stroke-linecap="round" stroke-linejoin="round"></path>
                <path d="M290.404193,74.4914073 L290.404193,81.4316242" id="Stroke-28" stroke="#3D3D3D" stroke-width="1.5" stroke-linecap="round" stroke-linejoin="round"></path>
                <path d="M87.2637752,39.2285313 L95.4436975,39.2285313" id="Stroke-30" stroke="#3D3D3D" stroke-width="1.5" stroke-linecap="round" stroke-linejoin="round"></path>
                <path d="M91.3537567,35.1388202 L91.3537567,43.3182018" id="Stroke-32" stroke="#3D3D3D" stroke-width="1.5" stroke-linecap="round" stroke-linejoin="round"></path>
                <path d="M223.528599,13.4662029 L231.708521,13.4662029" id="Stroke-34" stroke="#3D3D3D" stroke-width="1.5" stroke-linecap="round" stroke-linejoin="round"></path>
                <path d="M227.618601,9.3764918 L227.618601,17.5558734" id="Stroke-36" stroke="#3D3D3D" stroke-width="1.5" stroke-linecap="round" stroke-linejoin="round"></path>
                <path d="M98.5,99.5 L173,99.5 L173,111 L145.5,112 L131.5,111.5 L122.5,111.5 L117.5,109 L117.5,105 C103.5,105 96.5,105 96.5,105 C96.5,105 97.1666667,103.166667 98.5,99.5 Z" id="Path-3" fill="#EFEFEF" fill-rule="nonzero"></path>
                <path d="M146,90.44 C161.154693,90.44 173.44,78.1546935 173.44,63 C173.44,47.8453065 161.154693,35.56 146,35.56 C130.845306,35.56 118.56,47.8453065 118.56,63 C118.56,78.1546935 130.845306,90.44 146,90.44 Z" id="Oval" stroke="#3D3D3D" stroke-linecap="round" stroke-dasharray="9,4,5,4"></path>
                <circle id="Oval" stroke="#3D3D3D" stroke-width="1.5" cx="146" cy="63" r="24.32"></circle>
                <circle id="Oval" stroke="#3D3D3D" stroke-width="1.5" cx="146" cy="63" r="32"></circle>
                <path d="M117,83.7999878 L176,83.7999878 C177.656854,83.7999878 179,85.1431336 179,86.7999878 L179,93.7999878 C179,95.456842 177.656854,96.7999878 176,96.7999878 L117,96.7999878 C115.343146,96.7999878 114,95.456842 114,93.7999878 L114,86.7999878 C114,85.1431336 115.343146,83.7999878 117,83.7999878 Z" id="path-1" fill="#FFFFFF"></path>
                <rect id="Rectangle-path" stroke="#3D3D3D" stroke-width="1.5" x="114.75" y="84.5499878" width="63.5" height="11.5" rx="3"></rect>
                <rect id="path-2" fill="#FFFFFF" x="114" y="97" width="65" height="13" rx="3"></rect>
                <rect id="Rectangle-path" stroke="#3D3D3D" stroke-width="1.5" x="114.75" y="97.75" width="63.5" height="11.5" rx="3"></rect>
                <path d="M123,96 L129.5,85" id="Path-4-Copy" stroke="#3D3D3D"></path>
                <path d="M118,96 L124.5,85" id="Path-4-Copy-22" stroke="#3D3D3D"></path>
                <path d="M114.5,93.5 L119.5,85" id="Path-4-Copy-24" stroke="#3D3D3D"></path>
                <path d="M129.38814,109.064583 L123.11186,97.9354174" id="Path-4-Copy-9" stroke="#3D3D3D"></path>
                <path d="M143,96 L149.5,85" id="Path-4-Copy-4" stroke="#3D3D3D"></path>
                <path d="M149.38814,109.064583 L143.11186,97.9354174" id="Path-4-Copy-12" stroke="#3D3D3D"></path>
                <path d="M163,96 L169.5,85" id="Path-4-Copy-8" stroke="#3D3D3D"></path>
                <path d="M169.38814,109.064583 L163.11186,97.9354174" id="Path-4-Copy-13" stroke="#3D3D3D"></path>
                <path d="M133,96 L139.5,85" id="Path-4-Copy-2" stroke="#3D3D3D"></path>
                <path d="M139.38814,109.064583 L133.11186,97.9354174" id="Path-4-Copy-14" stroke="#3D3D3D"></path>
                <path d="M153,96 L159.5,85" id="Path-4-Copy-5" stroke="#3D3D3D"></path>
                <path d="M159.38814,109.064583 L153.11186,97.9354174" id="Path-4-Copy-15" stroke="#3D3D3D"></path>
                <path d="M128,96 L134.5,85" id="Path-4-Copy-3" stroke="#3D3D3D"></path>
                <path d="M134.38814,109.064583 L128.11186,97.9354174" id="Path-4-Copy-16" stroke="#3D3D3D"></path>
                <path d="M148,96 L154.5,85" id="Path-4-Copy-6" stroke="#3D3D3D"></path>
                <path d="M154.38814,109.064583 L148.11186,97.9354174" id="Path-4-Copy-17" stroke="#3D3D3D"></path>
                <path d="M168,96 L174.5,85" id="Path-4-Copy-10" stroke="#3D3D3D"></path>
                <path d="M174.38814,109.064583 L168.11186,97.9354174" id="Path-4-Copy-18" stroke="#3D3D3D"></path>
                <path d="M138,96 L144.5,85" id="Path-4-Copy-7" stroke="#3D3D3D"></path>
                <path d="M144.38814,109.064583 L138.11186,97.9354174" id="Path-4-Copy-19" stroke="#3D3D3D"></path>
                <path d="M158,96 L164.5,85" id="Path-4-Copy-11" stroke="#3D3D3D"></path>
                <path d="M164.38814,109.064583 L158.11186,97.9354174" id="Path-4-Copy-20" stroke="#3D3D3D"></path>
                <path d="M124.276279,109.129165 L118,98" id="Path-4-Copy-21" stroke="#3D3D3D"></path>
                <path d="M119.276279,109.129165 L114.5,101.5" id="Path-4-Copy-23" stroke="#3D3D3D"></path>
                <rect id="Rectangle-17" fill="#FFFFFF" fill-rule="nonzero" transform="translate(169.500000, 77.500000) rotate(45.000000) translate(-169.500000, -77.500000) " x="142" y="50" width="55" height="55" rx="9"></rect>
                <rect id="Rectangle-17" stroke="#3D3D3D" stroke-width="1.5" transform="translate(170.000000, 78.000000) rotate(45.000000) translate(-170.000000, -78.000000) " x="144.75" y="52.75" width="50.5" height="50.5" rx="9"></rect>
                <text id="OOPS!" fill="#3D3D3D" font-family="Lato-Bold, Lato" font-size="13" font-weight="bold">
                    <tspan x="150" y="83">OOPS!</tspan>
                </text>
            </g>
        </g>
    </g>
</svg>